<svg xmlns="http://www.w3.org/2000/svg"><symbol id="sprite-arrow" viewBox="0 0 24 24"><title>arrow</title><path d="M10 6L8.59 7.41 13.17 12l-4.58 4.59L10 18l6-6z"/><path d="M0 0h24v24H0z" fill="none"/></symbol><symbol id="sprite-close" viewBox="0 0 24 24"><title>close</title><path d="M19 6.41L17.59 5 12 10.59 6.41 5 5 6.41 10.59 12 5 17.59 6.41 19 12 13.41 17.59 19 19 17.59 13.41 12z"/><path d="M0 0h24v24H0z" fill="none"/></symbol><symbol id="sprite-refresh" viewBox="0 0 24 24"><title>refresh</title><path d="M17.65 6.35A7.958 7.958 0 0012 4c-4.42 0-7.99 3.58-7.99 8s3.57 8 7.99 8c3.73 0 6.84-2.55 7.73-6h-2.08A5.99 5.99 0 0112 18c-3.31 0-6-2.69-6-6s2.69-6 6-6c1.66 0 3.14.69 4.22 1.78L13 11h7V4l-2.35 2.35z"/><path d="M0 0h24v24H0z" fill="none"/></symbol><symbol id="sprite-search" viewBox="0 0 24 24"><title>search</title><path d="M15.5 14h-.79l-.28-.27A6.471 6.471 0 0016 9.5 6.5 6.5 0 109.5 16c1.61 0 3.09-.59 4.23-1.57l.27.28v.79l5 4.99L20.49 19l-4.99-5zm-6 0C7.01 14 5 11.99 5 9.5S7.01 5 9.5 5 14 7.01 14 9.5 11.99 14 9.5 14z"/><path d="M0 0h24v24H0z" fill="none"/></symbol></svg>